# Blender 4.5.3 LTS
# www.blender.org
mtllib scene.mtl
o 立方体.001
v -6.929123 -0.173112 2.875894
v -6.744347 0.173112 2.684168
v -6.929123 -0.173112 -2.875894
v -6.744347 0.173112 -2.684168
v 6.929123 -0.173112 2.875894
v 6.744347 0.173112 2.684168
v 6.929123 -0.173112 -2.875894
v 6.744347 0.173112 -2.684168
v -6.929123 0.173112 2.875894
v -6.929123 0.173112 -2.875894
v 6.929123 0.173112 -2.875894
v 6.929123 0.173112 2.875894
v -6.744347 0.000000 2.684168
v -6.744347 -0.000000 -2.684168
v 6.744347 -0.000000 -2.684168
v 6.744347 0.000000 2.684168
v 6.698157 -0.012582 -2.156920
v 6.698157 2.757209 -2.156921
v 6.698157 -0.012582 2.156920
v 6.698157 2.757210 2.156920
v 6.420992 -0.012582 -2.156920
v 6.420992 2.757209 -2.156921
v 6.420992 -0.012582 2.156920
v 6.420992 2.757210 2.156920
v 6.698157 -0.012582 0.901722
v 6.698157 -0.012582 -0.901722
v 6.698157 2.757209 -0.901722
v 6.698157 2.757209 0.901722
v 6.420992 -0.012582 -0.901722
v 6.420992 -0.012582 0.901722
v 6.420992 2.757209 0.901722
v 6.420992 2.757209 -0.901722
v 6.698157 2.237873 -2.156921
v 6.698157 2.237874 2.156920
v 6.420992 2.237874 2.156920
v 6.420992 2.237873 -2.156921
v 6.420992 2.237874 0.901722
v 6.420992 2.237874 -0.901722
v 6.698157 2.237874 -0.901722
v 6.698157 2.237874 0.901722
v -6.698153 -0.012582 2.636236
v -6.698153 2.757210 2.636236
v -6.698153 -0.012582 -2.636236
v -6.698153 2.757209 -2.636236
v -6.420987 -0.012582 2.636236
v -6.420987 2.757210 2.636236
v -6.420987 -0.012582 -2.636236
v -6.420987 2.757209 -2.636236
v -6.698153 -0.012582 -1.381038
v -6.698153 -0.012582 1.381038
v -6.698153 2.757209 1.381038
v -6.698153 2.757209 -1.381038
v -6.420987 -0.012582 1.381038
v -6.420987 -0.012582 -1.381038
v -6.420987 2.757209 -1.381038
v -6.420987 2.757209 1.381038
v -6.698153 2.237874 2.636236
v -6.698153 2.237873 -2.636236
v -6.420987 2.237873 -2.636236
v -6.420987 2.237874 2.636236
v -6.420987 2.237874 -1.381038
v -6.420987 2.237874 1.381038
v -6.698153 2.237874 1.381038
v -6.698153 2.237874 -1.381038
vn -1.0000 -0.0000 -0.0000
vn -0.0000 -0.0000 -1.0000
vn 1.0000 -0.0000 -0.0000
vn -0.0000 -0.0000 1.0000
vn -0.0000 -1.0000 -0.0000
vn -0.0000 1.0000 -0.0000
vt 0.073163 0.575323
vt 0.084737 0.575323
vt 0.084737 0.691062
vt 0.073163 0.691062
vt 0.090524 0.708423
vt 0.090524 0.696849
vt 0.437741 0.696849
vt 0.437741 0.708423
vt 0.455102 0.691063
vt 0.443528 0.691063
vt 0.443528 0.575323
vt 0.455102 0.575323
vt 0.437741 0.557962
vt 0.437741 0.569536
vt 0.090524 0.569536
vt 0.090524 0.557962
vt 0.090524 0.442223
vt 0.437741 0.442223
vt 0.438898 0.579953
vt 0.438898 0.686433
vt 0.433112 0.686433
vt 0.433112 0.579953
vt 0.089366 0.579953
vt 0.089366 0.686433
vt 0.095153 0.692220
vt 0.433112 0.692220
vt 0.433112 0.574166
vt 0.095153 0.574166
vt 0.095153 0.686433
vt 0.095153 0.579953
vt 0.356845 0.494974
vt 0.356845 0.427442
vt 0.470484 0.427442
vt 0.470484 0.494974
vt 0.497497 0.332897
vt 0.497497 0.400429
vt 0.470484 0.400429
vt 0.470484 0.332897
vt 0.178931 0.332897
vt 0.178931 0.400429
vt 0.065292 0.400429
vt 0.065292 0.332897
vt 0.038279 0.400429
vt 0.038279 0.332897
vt 0.178931 0.013246
vt 0.178931 0.040258
vt 0.065292 0.040258
vt 0.065292 0.013246
vt 0.178931 0.427442
vt 0.065292 0.427442
vt 0.356845 0.400429
vt 0.470484 0.013246
vt 0.470484 0.040258
vt 0.356845 0.040258
vt 0.356845 0.013246
vt 0.356845 0.332897
vt 0.065292 0.494974
vt 0.178931 0.494974
vt 0.258884 0.464245
vt 0.040179 0.464245
vt 0.040179 0.429369
vt 0.258884 0.429369
vt 0.065292 0.787613
vt 0.178931 0.787613
vt 0.259102 0.464462
vt 0.636926 0.464462
vt 0.636926 0.499338
vt 0.259102 0.499338
vt 0.038279 0.040258
vt 0.497497 0.040258
vt 0.356845 0.787613
vt 0.470484 0.787613
vt 0.636926 0.464245
vt 0.259102 0.464245
vt 0.259102 0.429369
vt 0.636926 0.429369
vt 0.833530 0.494974
vt 0.833530 0.427442
vt 0.947169 0.427442
vt 0.947169 0.494974
vt 0.974182 0.332897
vt 0.974182 0.400429
vt 0.947169 0.400429
vt 0.947169 0.332897
vt 0.655617 0.332897
vt 0.655617 0.400429
vt 0.541977 0.400429
vt 0.541977 0.332897
vt 0.514964 0.400429
vt 0.514964 0.332897
vt 0.655617 0.013246
vt 0.655617 0.040258
vt 0.541977 0.040258
vt 0.541977 0.013246
vt 0.655617 0.427442
vt 0.541977 0.427442
vt 0.833530 0.400429
vt 0.947169 0.013246
vt 0.947169 0.040258
vt 0.833530 0.040258
vt 0.833530 0.013246
vt 0.833530 0.332897
vt 0.541977 0.494974
vt 0.655617 0.494974
vt 0.258884 0.566558
vt 0.040179 0.566558
vt 0.040179 0.531681
vt 0.258884 0.531681
vt 0.541977 0.787613
vt 0.655617 0.787613
vt 0.259102 0.566775
vt 0.636926 0.566775
vt 0.636926 0.601651
vt 0.259102 0.601651
vt 0.514964 0.040258
vt 0.974182 0.040258
vt 0.833530 0.787613
vt 0.947169 0.787613
vt 0.636926 0.566558
vt 0.259102 0.566558
vt 0.259102 0.531681
vt 0.636926 0.531681
s 1
usemtl 材质
f 1/1/1 9/2/1 10/3/1 3/4/1
f 3/5/2 10/6/2 11/7/2 7/8/2
f 7/9/3 11/10/3 12/11/3 5/12/3
f 5/13/4 12/14/4 9/15/4 1/16/4
f 3/17/5 7/18/5 5/13/5 1/16/5
f 6/19/1 8/20/1 15/21/1 16/22/1
f 2/23/6 4/24/6 10/3/6 9/2/6
f 4/25/6 8/26/6 11/7/6 10/6/6
f 8/20/6 6/19/6 12/11/6 11/10/6
f 6/27/6 2/28/6 9/15/6 12/14/6
f 15/21/6 14/29/6 13/30/6 16/22/6
f 4/24/3 2/23/3 13/30/3 14/29/3
f 2/28/2 6/27/2 16/22/2 13/30/2
f 8/26/4 4/25/4 14/29/4 15/21/4
f 40/31/3 28/32/3 20/33/3 34/34/3
f 34/35/4 20/36/4 24/37/4 35/38/4
f 38/39/1 32/40/1 22/41/1 36/42/1
f 36/42/2 22/41/2 18/43/2 33/44/2
f 26/45/5 29/46/5 21/47/5 17/48/5
f 32/40/6 27/49/6 18/50/6 22/41/6
f 24/37/6 20/33/6 28/32/6 31/51/6
f 31/51/6 28/32/6 27/49/6 32/40/6
f 19/52/5 23/53/5 30/54/5 25/55/5
f 35/38/1 24/37/1 31/51/1 37/56/1
f 37/56/1 31/51/1 32/40/1 38/39/1
f 33/57/3 18/50/3 27/49/3 39/58/3
f 39/58/3 27/49/3 28/32/3 40/31/3
f 37/59/5 38/60/5 39/61/5 40/62/5
f 17/63/3 33/57/3 39/58/3 26/64/3
f 40/65/2 25/66/2 30/67/2 37/68/2
f 23/53/1 35/38/1 37/56/1 30/54/1
f 21/47/2 36/42/2 33/44/2 17/69/2
f 29/46/1 38/39/1 36/42/1 21/47/1
f 19/70/4 34/35/4 35/38/4 23/53/4
f 25/71/3 40/31/3 34/34/3 19/72/3
f 26/73/4 39/74/4 38/75/4 29/76/4
f 64/77/1 52/78/1 44/79/1 58/80/1
f 58/81/2 44/82/2 48/83/2 59/84/2
f 62/85/3 56/86/3 46/87/3 60/88/3
f 60/88/4 46/87/4 42/89/4 57/90/4
f 50/91/5 53/92/5 45/93/5 41/94/5
f 56/86/6 51/95/6 42/96/6 46/87/6
f 48/83/6 44/79/6 52/78/6 55/97/6
f 55/97/6 52/78/6 51/95/6 56/86/6
f 43/98/5 47/99/5 54/100/5 49/101/5
f 59/84/3 48/83/3 55/97/3 61/102/3
f 61/102/3 55/97/3 56/86/3 62/85/3
f 57/103/1 42/96/1 51/95/1 63/104/1
f 63/104/1 51/95/1 52/78/1 64/77/1
f 61/105/5 62/106/5 63/107/5 64/108/5
f 41/109/1 57/103/1 63/104/1 50/110/1
f 64/111/4 49/112/4 54/113/4 61/114/4
f 47/99/3 59/84/3 61/102/3 54/100/3
f 45/93/4 60/88/4 57/90/4 41/115/4
f 53/92/3 62/85/3 60/88/3 45/93/3
f 43/116/2 58/81/2 59/84/2 47/99/2
f 49/117/1 64/77/1 58/80/1 43/118/1
f 50/119/2 63/120/2 62/121/2 53/122/2
